# Blender v2.76 (sub 0) OBJ File: ''
# www.blender.org
mtllib Body5T.mtl
o Mesh1_Model.003
v 60.723598 362.500000 -64.192238
v 32.504799 362.500000 -64.192238
v -52.901402 362.500000 -64.192238
v -52.901402 362.500000 1.776459
v -52.901402 362.500000 67.745262
v 60.723598 362.500000 67.745262
v 60.723598 362.500000 31.432758
v 60.723598 252.819016 -64.192261
v 32.504799 252.819016 -64.192261
v 32.504799 329.316010 -64.192245
v 60.723598 307.660004 -64.192245
v 30.973600 252.819000 31.432741
v 30.973600 252.819000 -0.192307
v 30.973600 252.819000 -27.004759
v 30.973600 252.819000 -31.004759
v 30.911100 252.819000 -31.004759
v 4.286080 252.819000 -31.004759
v 4.286080 252.819016 -64.192261
v 30.911100 252.819016 -64.192261
v 60.723598 252.819000 31.432741
v 36.598598 252.819000 31.432741
v 30.973600 221.757004 -0.192312
v 30.973600 221.757004 31.432735
v 30.911100 221.757004 -0.192312
v -5.276420 221.757004 -0.192312
v -5.276420 284.194000 -0.192302
v 30.973600 284.194000 -0.192302
v 30.911100 221.757004 31.432735
v 30.911100 170.944000 33.120228
v 30.911100 143.139008 33.120224
v 30.911100 143.139008 -31.004778
v 30.911100 208.514008 -31.004766
v 30.911100 221.757004 -31.004765
v 30.911100 221.757004 33.120235
v 36.598598 221.757004 33.120235
v 36.598598 252.819000 33.120243
v -29.963900 252.819000 33.120243
v -29.963900 196.069000 33.120232
v -29.963900 179.826004 33.120232
v -29.963900 143.139008 33.120224
v 36.598598 170.944000 33.120228
v 36.598598 252.818985 67.745239
v 36.598598 170.943985 67.745232
v -29.963900 252.818985 67.745239
v 60.723598 307.660004 67.745255
v -29.963900 307.660004 67.745255
v 60.723598 170.943985 67.745232
v -52.901402 307.660004 67.745255
v -52.901402 196.069000 1.776432
v -52.901402 196.069000 33.120232
v -52.901402 307.660004 33.120251
v -52.901402 196.069000 -31.004768
v -52.901402 329.316010 -64.192245
v -52.901402 296.131989 -64.192253
v -52.901402 296.131989 -31.004753
v -29.963900 196.069000 -31.004768
v -29.963900 179.826004 -31.004772
v -5.276420 221.757004 -31.004765
v 0.161076 221.757004 -31.004765
v 0.161076 143.139008 -31.004778
v -29.963900 143.139008 -31.004778
v -29.963900 252.819000 -31.004759
v -5.276420 252.819000 -31.004759
v -29.963900 143.138992 67.745224
v -29.963900 179.825989 67.745232
v 36.598598 143.138992 67.745224
v 3.317330 143.138992 67.745224
v 36.598598 143.139008 33.120224
v 3.317330 71.569389 67.745216
v 59.973598 71.569389 67.745216
v 59.973598 143.138992 67.745224
v -52.901402 -0.000011 67.745201
v 3.317330 -0.000011 67.745201
v -52.901402 179.825989 67.745232
v 0.161076 0.000010 -64.192299
v 59.973598 0.000010 -64.192299
v 59.973598 0.000002 -12.304600
v 59.973598 -0.000004 23.835800
v 59.973598 -0.000011 67.745201
v -52.901402 0.000010 -64.192299
v -29.963900 0.000010 -64.192299
v 0.161076 143.139023 -64.192276
v 0.161076 252.819016 -64.192261
v 30.911100 208.514023 -64.192268
v 59.973598 208.514023 -64.192268
v 59.973598 143.139023 -64.192276
v 0.161076 252.882019 -64.192261
v 0.161076 252.882004 -31.004759
v 0.161076 252.819000 -31.004759
v -29.963900 143.139023 -64.192276
v -29.963900 179.826019 -64.192268
v -52.901402 179.826019 -64.192268
v 30.911100 252.882019 -64.192261
v -29.963900 252.819016 -64.192261
v -29.963900 296.131989 -64.192253
v 30.911100 252.882004 -31.004759
v 59.973598 208.514008 -31.004766
v 59.973598 143.139008 -31.004778
v 59.973598 143.139008 33.120224
v 4.286080 252.882004 -31.004759
v 4.286080 284.194000 -31.004755
v 30.973600 284.194000 -31.004755
v -5.276420 284.194000 -31.004755
v 30.973600 284.194000 -27.004755
v -29.963900 296.131989 -31.004753
v -29.963900 307.660004 33.120251
v 60.723598 221.757004 31.432735
v 60.723598 307.660004 31.432749
v 60.723598 170.944000 31.432728
v 36.598598 221.757004 31.432735
v 36.598598 170.944000 31.432728
vt 32.504799 64.192299
vt -52.901402 -1.776400
vt 60.723598 -31.432699
vt -32.504799 329.316010
vt -60.723598 362.500000
vt -60.723598 307.660004
vt -60.723598 64.192299
vt -60.723598 -31.432699
vt -30.973600 27.004801
vt 0.192348 252.819000
vt -31.432699 252.819000
vt -31.432699 221.757004
vt 5.276420 221.757004
vt 5.276420 284.194000
vt -30.973600 252.819000
vt -30.911100 0.192348
vt -30.973600 0.192348
vt -30.973600 -31.432699
vt 31.004801 208.514008
vt 0.192348 221.757004
vt -33.120201 170.944000
vt -29.963900 252.819000
vt -29.963900 196.069000
vt 30.911100 221.757004
vt 36.598598 221.757004
vt 30.911100 170.944000
vt 33.120201 221.757004
vt 33.120201 170.944000
vt 67.745201 170.944000
vt 29.963900 -67.745201
vt 29.963900 -33.120201
vt -36.598598 -33.120201
vt 60.723598 307.660004
vt 36.598598 252.819000
vt 60.723598 170.944000
vt -29.963900 307.660004
vt 60.723598 362.500000
vt 1.776400 196.069000
vt 33.120201 196.069000
vt 33.120201 307.660004
vt 1.776400 362.500000
vt -64.192299 329.316010
vt -31.004801 296.131989
vt 52.901402 -1.776400
vt 29.963900 31.004801
vt -31.004801 179.826004
vt 33.120201 179.826004
vt -0.161076 143.139008
vt 29.963900 179.826004
vt -0.161076 221.757004
vt 0.161076 31.004801
vt -5.276420 31.004801
vt -5.276420 0.192348
vt -30.911100 221.757004
vt -30.911100 208.514008
vt -0.161076 31.004801
vt -30.911100 31.004801
vt -30.911100 -33.120201
vt 33.120201 143.139008
vt 67.745201 143.139008
vt 67.745201 179.826004
vt -3.317330 -67.745201
vt -36.598598 -67.745201
vt 59.973598 71.569397
vt 59.973598 143.139008
vt 36.598598 143.139008
vt 3.317330 71.569397
vt -29.963900 143.139008
vt -52.901402 0.000000
vt -59.973598 -23.835800
vt -59.973598 12.304600
vt -0.161076 252.819000
vt 64.192299 252.819000
vt 31.004801 252.819000
vt 31.004801 221.757004
vt -0.161076 64.192299
vt -29.963900 0.000000
vt 0.161076 0.000000
vt 0.161076 143.139008
vt -52.901402 179.826004
vt -31.004801 143.139008
vt -64.192299 179.826004
vt 52.901402 64.192299
vt 52.901402 -67.745201
vt 64.192299 179.826004
vt -67.745201 179.826004
vt -67.745201 0.000000
vt 29.963900 296.131989
vt 52.901402 329.316010
vt -31.004801 221.757004
vt -31.004801 252.819000
vt -64.192299 252.819000
vt -30.911100 64.192299
vt -59.973598 64.192299
vt -59.973598 208.514008
vt -59.973598 143.139008
vt -30.911100 143.139008
vt 64.192299 143.139008
vt 64.192299 208.514008
vt 31.004801 143.139008
vt -33.120201 143.139008
vt -67.745201 71.569397
vt -59.973598 31.004801
vt -59.973598 -33.120201
vt -59.973598 -67.745201
vt 59.973598 0.000000
vt -4.286080 252.819000
vt -30.911100 252.819000
vt 5.276420 31.004801
vt -0.161076 252.882004
vt -30.911100 252.882004
vt -4.286080 31.004801
vt 30.911100 252.882004
vt 30.973600 252.819000
vt 30.973600 284.194000
vt 0.161076 252.882004
vt 4.286080 284.194000
vt -5.276420 284.194000
vt 30.911100 252.819000
vt 4.286080 252.882004
vt 5.276420 0.192348
vt -27.004801 252.819000
vt -27.004801 284.194000
vt -31.004801 284.194000
vt -0.192348 252.819000
vt -0.192348 284.194000
vt 0.192348 284.194000
vt -64.192299 296.131989
vt 29.963900 252.819000
vt 52.901402 196.069000
vt 52.901402 296.131989
vt 52.901402 31.004801
vt 29.963900 64.192299
vt 52.901402 362.500000
vt -52.901402 307.660004
vt -52.901402 196.069000
vt 67.745201 252.819000
vt 67.745201 307.660004
vt 52.901402 -33.120201
vt -31.432699 362.500000
vt -67.745201 307.660004
vt -31.432699 307.660004
vt -36.598598 221.757004
vt -36.598598 252.819000
vt -60.723598 252.819000
vt -60.723598 221.757004
vt -60.723598 170.944000
vt -36.598598 170.944000
vt -60.723598 -67.745201
vt 31.432699 221.757004
vt 31.432699 170.944000
vt -36.598598 -31.432699
vt 64.192299 307.660004
vt 64.192299 362.500000
vt 60.723598 64.192299
vt -52.901402 64.192299
vt -52.901402 -67.745201
vt 60.723598 -67.745201
vt -32.504799 252.819000
vt -32.504799 362.500000
vt -30.973600 31.004801
vt -4.286080 64.192299
vt -32.504799 64.192299
vt -30.973600 221.757004
vt -30.973600 284.194000
vt -30.911100 -31.432699
vt -33.120201 221.757004
vt 30.911100 143.139008
vt -29.963900 179.826004
vt 36.598598 170.944000
vt 33.120201 252.819000
vt -52.901402 362.500000
vt 67.745201 362.500000
vt -31.004801 196.069000
vt -64.192299 362.500000
vt 29.963900 196.069000
vt 5.276420 252.819000
vt 29.963900 143.139008
vt 30.911100 0.192348
vt 30.911100 31.004801
vt 3.317330 143.139008
vt 3.317330 0.000000
vt -0.161076 0.000000
vt -59.973598 0.000000
vt 64.192299 252.882004
vt 31.004801 252.882004
vt -64.192299 143.139008
vt 64.192299 0.000000
vt -64.192299 208.514008
vt -31.004801 208.514008
vt -31.004801 252.882004
vt -64.192299 252.882004
vt -23.835800 0.000000
vt 12.304600 0.000000
vt -67.745201 143.139008
vt -5.276420 252.819000
vt 0.161076 252.819000
vt -4.286080 252.882004
vt 4.286080 252.819000
vt 31.004801 284.194000
vt -31.432699 170.944000
vt -67.745201 170.944000
vt -67.745201 362.500000
vn 0.000000 1.000000 0.000000
vn -0.000000 0.000000 -1.000000
vn 0.000000 -1.000000 -0.000000
vn 1.000000 -0.000000 0.000000
vn -0.000000 -0.000000 1.000000
vn -1.000000 0.000000 0.000000
usemtl FrontColor.003
s 1
f 2/1/1 4/2/1 7/3/1
f 10/4/2 1/5/2 11/6/2
f 8/7/3 20/8/3 14/9/3
f 13/10/4 12/11/4 23/12/4
f 25/13/2 26/14/2 13/15/2
f 24/16/3 22/17/3 23/18/3
f 32/19/4 24/20/4 29/21/4
f 37/22/5 38/23/5 34/24/5
f 35/25/5 34/24/5 29/26/5
f 35/27/6 41/28/6 43/29/6
f 44/30/3 37/31/3 36/32/3
f 45/33/5 42/34/5 47/35/5
f 46/36/5 45/33/5 6/37/5
f 49/38/6 50/39/6 51/40/6
f 4/41/6 53/42/6 55/43/6
f 38/31/3 49/44/3 56/45/3
f 57/46/6 39/47/6 38/39/6
f 60/48/2 57/49/2 59/50/2
f 59/51/1 58/52/1 25/53/1
f 59/50/2 33/54/2 32/55/2
f 60/56/3 31/57/3 30/58/3
f 40/59/6 39/47/6 57/46/6
f 64/60/6 65/61/6 39/47/6
f 67/62/3 30/58/3 66/63/3
f 70/64/5 71/65/5 66/66/5
f 69/67/5 64/68/5 72/69/5
f 78/70/3 73/62/3 77/71/3
f 83/72/2 84/55/2 82/48/2
f 83/73/4 89/74/4 59/75/4
f 82/76/3 60/56/3 61/45/3
f 81/77/5 75/78/5 82/79/5
f 90/68/5 92/80/5 80/69/5
f 61/81/6 57/46/6 91/82/6
f 92/83/3 39/31/3 74/84/3
f 92/85/4 74/86/4 72/87/4
f 95/88/2 53/89/2 10/4/2
f 33/90/6 16/91/6 19/92/6
f 32/57/3 84/93/3 85/94/3
f 97/95/2 98/96/2 31/97/2
f 86/98/4 85/99/4 97/19/4
f 98/100/4 99/101/4 70/102/4
f 98/103/3 68/32/3 31/57/3
f 99/104/3 71/105/3 66/63/3
f 79/106/5 70/64/5 69/67/5
f 17/107/2 16/108/2 33/54/2
f 83/76/3 89/56/3 63/109/3
f 87/110/2 93/111/2 18/107/2
f 93/93/3 100/112/3 87/76/3
f 96/113/5 15/114/5 102/115/5
f 88/116/5 101/117/5 103/118/5
f 17/107/2 89/72/2 88/110/2
f 16/119/5 96/113/5 100/120/5
f 101/112/3 27/17/3 26/121/3
f 14/122/6 104/123/6 102/124/6
f 13/125/6 27/126/6 104/123/6
f 63/74/4 26/127/4 25/20/4
f 62/91/6 105/43/6 95/128/6
f 62/129/2 52/130/2 55/131/2
f 55/132/3 54/83/3 95/133/3
f 10/4/2 53/89/2 3/134/2
f 51/135/5 50/136/5 37/22/5
f 44/137/6 46/138/6 106/40/6
f 51/139/3 106/31/3 46/30/3
f 7/140/4 45/141/4 108/142/4
f 110/143/2 21/144/2 20/145/2
f 107/146/2 109/147/2 111/148/2
f 41/32/3 109/8/3 47/149/3
f 35/27/6 110/150/6 111/151/6
f 23/18/3 110/152/3 35/32/3
f 11/153/4 108/142/4 20/11/4
f 108/142/4 11/153/4 1/154/4
f 7/3/1 1/155/1 2/1/1
f 2/1/1 3/156/1 4/2/1
f 4/2/1 5/157/1 7/3/1
f 6/158/1 7/3/1 5/157/1
f 11/6/2 8/145/2 9/159/2
f 9/159/2 10/4/2 11/6/2
f 2/160/2 1/5/2 10/4/2
f 21/152/3 12/18/3 13/17/3
f 13/17/3 14/9/3 20/8/3
f 15/161/3 16/57/3 19/93/3
f 17/112/3 18/162/3 19/93/3
f 19/93/3 9/163/3 15/161/3
f 8/7/3 14/9/3 15/161/3
f 21/152/3 13/17/3 20/8/3
f 16/57/3 17/112/3 19/93/3
f 9/163/3 8/7/3 15/161/3
f 22/20/4 13/10/4 23/12/4
f 13/15/2 22/164/2 24/54/2
f 24/54/2 25/13/2 13/15/2
f 26/14/2 27/165/2 13/15/2
f 28/166/3 24/16/3 23/18/3
f 34/167/4 29/21/4 28/12/4
f 30/101/4 31/100/4 29/21/4
f 32/19/4 33/75/4 24/20/4
f 28/12/4 29/21/4 24/20/4
f 32/19/4 29/21/4 31/100/4
f 40/68/5 30/168/5 29/26/5
f 34/24/5 35/25/5 36/34/5
f 40/68/5 29/26/5 39/169/5
f 38/23/5 39/169/5 29/26/5
f 36/34/5 37/22/5 34/24/5
f 29/26/5 34/24/5 38/23/5
f 41/170/5 35/25/5 29/26/5
f 43/29/6 42/137/6 35/27/6
f 36/171/6 35/27/6 42/137/6
f 42/63/3 44/30/3 36/32/3
f 45/33/5 46/36/5 42/34/5
f 43/170/5 47/35/5 42/34/5
f 46/36/5 44/22/5 42/34/5
f 6/37/5 5/172/5 46/36/5
f 48/135/5 46/36/5 5/172/5
f 48/138/6 5/173/6 51/40/6
f 4/41/6 49/38/6 51/40/6
f 51/40/6 5/173/6 4/41/6
f 55/43/6 52/174/6 49/38/6
f 4/41/6 3/175/6 53/42/6
f 55/43/6 49/38/6 4/41/6
f 53/42/6 54/128/6 55/43/6
f 52/132/3 56/45/3 49/44/3
f 38/31/3 50/139/3 49/44/3
f 56/174/6 57/46/6 38/39/6
f 58/13/2 59/50/2 56/176/2
f 62/129/2 63/177/2 58/13/2
f 57/49/2 56/176/2 59/50/2
f 60/48/2 61/178/2 57/49/2
f 62/129/2 58/13/2 56/176/2
f 25/53/1 24/179/1 59/51/1
f 33/180/1 59/51/1 24/179/1
f 32/55/2 31/97/2 60/48/2
f 60/48/2 59/50/2 32/55/2
f 30/58/3 40/31/3 60/56/3
f 61/45/3 60/56/3 40/31/3
f 61/81/6 40/59/6 57/46/6
f 40/59/6 64/60/6 39/47/6
f 68/32/3 66/63/3 30/58/3
f 67/62/3 64/30/3 40/31/3
f 40/31/3 30/58/3 67/62/3
f 66/66/5 67/181/5 69/67/5
f 69/67/5 70/64/5 66/66/5
f 74/80/5 72/69/5 64/68/5
f 69/67/5 67/181/5 64/68/5
f 72/69/5 73/182/5 69/67/5
f 64/68/5 65/169/5 74/80/5
f 81/133/3 75/76/3 73/62/3
f 76/94/3 77/71/3 75/76/3
f 78/70/3 79/105/3 73/62/3
f 73/62/3 72/84/3 81/133/3
f 80/83/3 81/133/3 72/84/3
f 77/71/3 73/62/3 75/76/3
f 75/183/2 82/48/2 76/184/2
f 83/72/2 18/107/2 84/55/2
f 84/55/2 85/95/2 86/96/2
f 18/107/2 19/108/2 84/55/2
f 76/184/2 82/48/2 86/96/2
f 84/55/2 86/96/2 82/48/2
f 59/75/4 60/100/4 82/98/4
f 82/98/4 83/73/4 59/75/4
f 87/185/4 88/186/4 89/74/4
f 89/74/4 83/73/4 87/185/4
f 90/133/3 82/76/3 61/45/3
f 90/68/5 81/77/5 82/79/5
f 90/68/5 91/169/5 92/80/5
f 80/69/5 81/77/5 90/68/5
f 90/187/6 61/81/6 91/82/6
f 65/30/3 74/84/3 39/31/3
f 92/83/3 91/133/3 57/45/3
f 57/45/3 39/31/3 92/83/3
f 80/188/4 92/85/4 72/87/4
f 10/4/2 9/159/2 93/111/2
f 87/110/2 83/72/2 94/129/2
f 9/159/2 19/108/2 93/111/2
f 87/110/2 94/129/2 95/88/2
f 10/4/2 93/111/2 87/110/2
f 54/131/2 53/89/2 95/88/2
f 10/4/2 87/110/2 95/88/2
f 19/92/6 84/189/6 33/90/6
f 32/190/6 33/90/6 84/189/6
f 16/91/6 96/191/6 93/192/6
f 93/192/6 19/92/6 16/91/6
f 97/103/3 32/57/3 85/94/3
f 32/55/2 97/95/2 31/97/2
f 98/100/4 86/98/4 97/19/4
f 79/87/4 78/193/4 70/102/4
f 77/194/4 76/188/4 98/100/4
f 86/98/4 98/100/4 76/188/4
f 99/101/4 71/195/4 70/102/4
f 70/102/4 78/193/4 77/194/4
f 77/194/4 98/100/4 70/102/4
f 30/58/3 31/57/3 68/32/3
f 98/103/3 99/104/3 68/32/3
f 68/32/3 99/104/3 66/63/3
f 73/182/5 79/106/5 69/67/5
f 33/54/2 59/50/2 17/107/2
f 89/72/2 17/107/2 59/50/2
f 62/45/3 94/133/3 63/109/3
f 83/76/3 18/162/3 17/112/3
f 17/112/3 89/56/3 83/76/3
f 63/109/3 94/133/3 83/76/3
f 19/108/2 18/107/2 93/111/2
f 83/72/2 87/110/2 18/107/2
f 88/56/3 87/76/3 100/112/3
f 93/93/3 96/57/3 100/112/3
f 102/115/5 101/117/5 96/113/5
f 96/113/5 16/119/5 15/114/5
f 101/117/5 100/120/5 96/113/5
f 103/118/5 63/196/5 88/116/5
f 88/116/5 100/120/5 101/117/5
f 63/196/5 89/197/5 88/116/5
f 100/198/2 17/107/2 88/110/2
f 17/199/5 16/119/5 100/120/5
f 26/121/3 103/109/3 101/112/3
f 101/112/3 102/161/3 104/9/3
f 104/9/3 27/17/3 101/112/3
f 15/91/6 14/122/6 102/124/6
f 14/122/6 13/125/6 104/123/6
f 25/20/4 58/75/4 63/74/4
f 63/74/4 103/200/4 26/127/4
f 94/92/6 62/91/6 95/128/6
f 55/131/2 105/88/2 62/129/2
f 62/129/2 56/176/2 52/130/2
f 105/45/3 55/132/3 95/133/3
f 2/160/2 10/4/2 3/134/2
f 38/23/5 37/22/5 50/136/5
f 106/36/5 51/135/5 37/22/5
f 37/171/6 44/137/6 106/40/6
f 48/84/3 51/139/3 46/30/3
f 109/201/4 107/12/4 47/202/4
f 20/11/4 108/142/4 45/141/4
f 7/140/4 6/203/4 45/141/4
f 45/141/4 47/202/4 20/11/4
f 107/12/4 20/11/4 47/202/4
f 20/145/2 107/146/2 110/143/2
f 110/143/2 23/164/2 12/15/2
f 12/15/2 21/144/2 110/143/2
f 110/143/2 107/146/2 111/148/2
f 47/149/3 43/63/3 41/32/3
f 41/32/3 111/152/3 109/8/3
f 41/28/6 35/27/6 111/151/6
f 35/32/3 34/58/3 23/18/3
f 28/166/3 23/18/3 34/58/3
f 8/73/4 11/153/4 20/11/4
f 7/140/4 108/142/4 1/154/4
