# Blender v2.76 (sub 0) OBJ File: ''
# www.blender.org
mtllib Door4T.mtl
o Mesh1_Model.002
v 53.044498 0.000003 -18.713800
v 53.044498 -0.000003 21.036200
v -34.143002 -0.000003 21.036200
v -34.143002 0.000003 -18.713800
v 53.044498 3.500003 -18.713800
v 53.044498 3.499997 21.036200
v -34.143002 3.500003 -18.713800
v -34.143002 3.499997 21.036200
vt -53.044498 -21.036200
vt 34.143002 -21.036200
vt 34.143002 18.713800
vt 18.713800 0.000000
vt 18.713800 3.500000
vt -21.036200 3.500000
vt 34.143002 0.000000
vt 34.143002 3.500000
vt -53.044498 3.500000
vt 21.036200 0.000000
vt 21.036200 3.500000
vt -18.713800 3.500000
vt 53.044498 0.000000
vt 53.044498 3.500000
vt -34.143002 3.500000
vt 53.044498 18.713800
vt -34.143002 18.713800
vt -34.143002 -21.036200
vt -53.044498 18.713800
vt -21.036200 0.000000
vt -53.044498 0.000000
vt -18.713800 0.000000
vt -34.143002 0.000000
vt 53.044498 -21.036200
vn 0.000000 -1.000000 -0.000000
vn 1.000000 0.000000 0.000000
vn 0.000000 0.000000 -1.000000
vn -1.000000 0.000000 0.000000
vn 0.000000 0.000000 1.000000
vn 0.000000 1.000000 0.000000
usemtl FrontColor.002
s 1
f 2/1/1 3/2/1 4/3/1
f 1/4/2 5/5/2 6/6/2
f 4/7/3 7/8/3 5/9/3
f 3/10/4 8/11/4 7/12/4
f 2/13/5 6/14/5 8/15/5
f 5/16/6 7/17/6 8/18/6
f 1/19/1 2/1/1 4/3/1
f 2/20/2 1/4/2 6/6/2
f 1/21/3 4/7/3 5/9/3
f 4/22/4 3/10/4 7/12/4
f 3/23/5 2/13/5 8/15/5
f 6/24/6 5/16/6 8/18/6
