# Blender v2.76 (sub 0) OBJ File: ''
# www.blender.org
mtllib Door1T.mtl
o Mesh8_Model
v -52.955002 4.874882 -11.896699
v -46.780102 4.874884 -22.626301
v -33.102001 4.717382 -11.896699
v -52.910198 11.765202 -11.852098
v -46.735401 11.765203 -22.581697
v -33.057201 11.607702 -11.852098
vt 16.102501 51.873600
vt 3.722950 51.873600
vt 6.199950 34.665901
vt 3.722950 4.415690
vt 16.102501 4.415690
vt 16.118799 11.306300
vt 3.739270 11.306300
vt -52.955601 4.797820
vt -33.102600 4.640320
vt -33.057899 11.530800
vt -52.910801 11.688300
vt 33.387402 4.729370
vt 50.771801 4.886870
vt 50.709000 11.777200
vt 33.324699 11.619700
vt -3.739270 51.875702
vt -16.118799 51.875702
vt -6.216270 34.667999
vn -0.007900 -1.000000 -0.004600
vn -0.866700 0.008900 -0.498800
vn -0.000100 -0.006500 1.000000
vn 0.617200 0.001100 -0.786800
vn 0.007900 1.000000 0.004600
usemtl FrontColor
s 1
f 1/1/1 2/2/1 3/3/1
f 2/4/2 1/5/2 4/6/2 5/7/2
f 1/8/3 3/9/3 6/10/3 4/11/3
f 3/12/4 2/13/4 5/14/4 6/15/4
f 5/16/5 4/17/5 6/18/5
o Mesh2_Model
v 51.367100 4.874879 5.698841
v 48.654598 4.874877 17.427601
v 34.605801 4.717379 5.698841
v 50.432598 4.874881 -6.229879
vt 6.022160 51.374901
vt -6.016250 51.374901
vt 2.245360 35.043800
vt -9.693400 50.808800
vt -8.384270 34.097900
vt 2.271870 50.808800
vn 0.009400 -1.000000 0.000600
vn 0.009400 -1.000000 0.002200
vn 0.009400 -1.000000 0.000800
vn 0.009400 -1.000000 -0.000700
usemtl FrontColor
s 1
f 7/19/6 8/20/7 9/21/8
f 7/22/6 9/23/8 10/24/9
o Mesh19_Model
v 42.479698 4.874875 28.157301
v 33.263401 4.874874 37.156502
v 28.837601 4.717375 28.157301
v 42.437302 9.362935 28.082102
v 33.221001 9.362934 37.081299
v 28.795200 9.205435 28.082102
vt 10.722000 49.897400
vt -2.159180 49.897400
vt 0.961339 40.365299
vt 10.722000 3.947880
vt 10.744200 8.436720
vt -2.136980 8.436720
vt -42.485199 4.402620
vt -28.843000 4.245100
vt -28.800600 8.733790
vt 37.993698 4.702780
vt 48.022301 4.860280
vt 47.936100 9.348350
vt 2.136980 49.888100
vt -10.744200 49.888100
vt -0.983532 40.355999
vt -2.159180 3.947880
vt -42.442699 8.891320
vt 37.907501 9.190840
vn 0.011500 -0.999900 0.011800
vn 0.698500 0.018600 0.715400
vn 0.000200 -0.016800 -0.999900
vn -0.897300 -0.001100 0.441300
vn -0.011500 0.999900 -0.011800
usemtl FrontColor
s 1
f 11/25/10 12/26/10 13/27/10
f 11/28/11 14/29/11 15/30/11
f 11/31/12 13/32/12 16/33/12
f 13/34/13 12/35/13 15/36/13
f 15/37/14 14/38/14 16/39/14
f 12/40/11 11/28/11 15/30/11
f 14/41/12 11/31/12 16/33/12
f 16/42/13 13/34/13 15/36/13
o Mesh16_Model
v 8.383220 4.874872 47.670200
v 6.708090 4.717372 47.670200
v 21.633699 4.874873 43.812000
vt -5.278110 47.157101
vt -6.886450 46.662998
vt 8.522700 47.157101
vn 0.089100 -0.947800 0.306100
usemtl FrontColor
s 1
f 17/43/15 18/44/15 19/45/15
o Mesh11_Model
v -5.585130 4.874872 48.468300
v -2.357740 4.717372 48.468300
v 8.383220 4.874872 47.670200
vt -8.340740 -33.358002
vt -5.118600 -33.600300
vt 5.650390 -33.358002
vn 0.037100 0.759900 0.649000
usemtl FrontColor
s 1
f 20/46/16 21/47/16 22/48/16
o Mesh3_Model
v 21.633699 4.874873 43.812000
v 15.308000 4.717373 43.812000
v 33.263401 4.874874 37.156502
v 21.544800 9.238544 43.542900
v 15.219100 9.081043 43.542900
v 33.174500 9.238544 36.887402
vt -2.985020 48.953800
vt -8.475250 45.807800
vt 10.414400 48.953800
vt 15.375200 2.014970
vt 21.700899 2.172770
vt 21.611601 6.544710
vt 15.285900 6.386920
vt -2.985020 1.767570
vt 10.414400 1.767570
vt 10.470900 6.140070
vt -2.928570 6.140070
vt -18.300301 1.860150
vt 0.848874 1.702320
vt 0.838904 6.075170
vt -18.310301 6.233000
vt 8.418800 45.748901
vt 2.928570 48.894901
vt -10.470900 48.894901
vn 0.024900 -0.998700 0.043500
vn -0.001500 0.061500 0.998100
vn 0.495700 0.063500 0.866200
vn -0.346300 -0.064800 -0.935900
vn -0.024900 0.998700 -0.043500
usemtl FrontColor
s 1
f 23/49/17 24/50/17 25/51/17
f 24/52/18 23/53/18 26/54/18 27/55/18
f 23/56/19 25/57/19 28/58/19 26/59/19
f 25/60/20 24/61/20 27/62/20 28/63/20
f 27/64/21 26/65/21 28/66/21
o Mesh7_Model
v 38.121101 4.874884 -27.477100
v 26.008801 4.717384 -27.477100
v 27.583200 4.874886 -35.347698
v 45.914600 4.874883 -17.545601
vt -14.100400 44.921600
vt -4.395950 37.671902
vt -0.947659 44.921600
vt -1.917520 47.026600
vt -14.541900 47.026600
vt 5.559920 37.496601
vn 0.013000 -0.999800 -0.013800
vn 0.013000 -0.999800 -0.017400
vn 0.013000 -0.999900 -0.010200
usemtl FrontColor
s 1
f 29/67/22 30/68/22 31/69/23
f 29/70/22 32/71/24 30/72/22
o Mesh4_Model
v -42.421501 4.874875 33.007999
v -26.265499 4.717375 33.007999
v -31.883600 4.874873 40.878601
v -50.215000 4.874876 23.076500
vt -14.236100 51.903500
vt -1.291960 42.234501
vt -1.083440 51.903500
vt -0.221157 53.806301
vt -12.845500 53.806301
vt 9.752590 41.095501
vn -0.009700 -0.999900 0.010400
vn -0.009700 -0.999900 0.010300
vn -0.009700 -0.999900 0.013100
vn -0.009700 -0.999900 0.007600
usemtl FrontColor
s 1
f 33/73/25 34/74/26 35/75/27
f 33/76/25 36/77/28 34/78/26
o Mesh10_Model
v -50.215000 4.874876 23.076500
v -54.733002 4.874878 11.760801
v -31.323700 4.717376 23.076500
v -50.177200 10.426597 23.050303
v -54.695099 10.426599 11.734602
v -31.285801 10.269096 23.050303
vt 2.811570 55.233700
vt -9.372720 55.233700
vt 9.816520 37.688400
vt -9.372720 4.428370
vt 2.811570 4.428370
vt 2.801300 9.980220
vt -9.383000 9.980220
vt -50.216000 4.765980
vt -31.324600 4.608480
vt -31.286699 10.160200
vt -50.178101 10.317700
vt 18.160200 4.468930
vt 44.160900 4.626430
vt 44.138199 10.178300
vt 18.137501 10.020700
vt 9.383000 55.238602
vt -2.801300 55.238602
vt -9.806250 37.693298
vn -0.008300 -1.000000 0.003300
vn -0.928700 0.008100 0.370800
vn 0.000000 0.004700 1.000000
vn 0.435200 -0.007200 -0.900300
vn 0.008300 1.000000 -0.003300
usemtl FrontColor
s 1
f 37/79/29 38/80/29 39/81/29
f 38/82/30 37/83/30 40/84/30 41/85/30
f 37/86/31 39/87/31 42/88/31 40/89/31
f 39/90/32 38/91/32 41/92/32 42/93/32
f 41/94/33 40/95/33 42/96/33
o Mesh17_Model
v 27.583200 4.874886 -35.347698
v 19.169399 4.717386 -35.347698
v 15.019000 4.874887 -40.620899
v 27.484400 11.322406 -34.940102
v 19.070601 11.164906 -34.940102
v 14.920200 11.322407 -40.213299
vt -11.754500 43.452999
vt -3.996250 40.193100
vt 1.871460 43.452999
vt 19.211201 2.480170
vt 27.625000 2.637980
vt 27.525700 9.098340
vt 19.111900 8.940520
vt -11.754500 2.092100
vt 1.871460 2.092100
vt 1.804830 8.552880
vt -11.821100 8.552880
vt -22.675200 2.985970
vt -15.964600 2.828260
vt -15.705000 9.284160
vt -22.415600 9.441870
vt 4.062880 40.091099
vt 11.821100 43.351002
vt -1.804830 43.351002
vn 0.018700 -0.998800 -0.044500
vn 0.001200 -0.063100 0.998000
vn 0.386200 0.064100 -0.920200
vn -0.785500 -0.051000 0.616700
vn -0.018700 0.998800 0.044500
usemtl FrontColor
s 1
f 43/97/34 44/98/34 45/99/34
f 44/100/35 43/101/35 46/102/35 47/103/35
f 43/104/36 45/105/36 48/106/36 46/107/36
f 45/108/37 44/109/37 47/110/37 48/111/37
f 47/112/38 46/113/38 48/114/38
o Mesh13_Model
v -19.319401 4.874872 46.151798
v -11.271600 4.717372 46.151798
v -5.585130 4.874872 48.468300
vt -11.374500 48.958000
vt -3.438840 47.610298
vt 2.553730 48.958000
vn -0.019400 -0.993100 0.115200
usemtl FrontColor
s 1
f 49/115/39 50/116/39 51/117/39
o Mesh9_Model
v 1.284730 4.874887 -42.937401
v 2.100980 4.717387 -42.937401
v -12.683600 4.874887 -42.139301
vt -3.731850 16.806700
vt -4.546770 16.642500
vt 10.259300 16.806700
vn -0.054700 -0.283500 -0.957400
usemtl FrontColor
s 1
f 52/118/40 53/119/40 54/120/40
o Mesh6_Model
v -46.780102 4.874884 -22.626301
v -37.563801 4.874885 -31.625500
v -29.094400 4.717384 -22.626301
v -46.732800 11.371203 -22.542398
v -37.516499 11.371204 -31.541597
v -29.047001 11.213704 -22.542398
vt 17.663000 48.928902
vt 4.781770 48.928902
vt 5.009120 36.572102
vt 4.781770 4.173590
vt 17.663000 4.173590
vt 17.687799 10.670500
vt 4.806550 10.670500
vt -46.782700 4.582130
vt -29.097000 4.424620
vt -29.049601 10.921400
vt -46.735401 11.079000
vt 36.416302 4.737520
vt 48.774200 4.895020
vt 48.680599 11.391300
vt 36.322701 11.233800
vt -4.806550 48.918499
vt -17.687799 48.918499
vt -5.033900 36.561699
vn -0.008900 -0.999900 -0.009100
vn -0.698600 0.014300 -0.715400
vn -0.000100 -0.012900 0.999900
vn 0.728200 0.003500 -0.685300
vn 0.008900 0.999900 0.009100
usemtl FrontColor
s 1
f 55/121/41 56/122/41 57/123/41
f 56/124/42 55/125/42 58/126/42 59/127/42
f 55/128/43 57/129/43 60/130/43 58/131/43
f 57/132/44 56/133/44 59/134/44 60/135/44
f 59/136/45 58/137/45 60/138/45
o Mesh18_Model
v 48.654598 4.874877 17.427601
v 42.479698 4.874875 28.157301
v 32.845200 4.717377 17.427601
v 48.617298 9.442087 17.390501
v 42.442501 9.442085 28.120102
v 32.807999 9.284587 17.390501
vt 9.163700 50.915401
vt -3.215840 50.915401
vt 1.278110 37.212200
vt -3.215840 4.308960
vt 9.163700 4.308960
vt 9.177290 8.876450
vt -3.202260 8.876450
vt -48.655998 4.733160
vt -32.846600 4.575650
vt -32.809399 9.143010
vt -48.618698 9.300520
vt 34.911701 4.709200
vt 49.332001 4.866700
vt 49.279598 9.433910
vt 34.859200 9.276410
vt 3.202260 50.917099
vt -9.177290 50.917099
vt -1.291700 37.213902
vn 0.010000 -0.999900 0.005700
vn 0.866700 0.011100 0.498800
vn 0.000100 -0.008100 -1.000000
vn -0.744100 -0.000600 0.668100
vn -0.010000 0.999900 -0.005700
usemtl FrontColor
s 1
f 61/139/46 62/140/46 63/141/46
f 62/142/47 61/143/47 64/144/47 65/145/47
f 61/146/48 63/147/48 66/148/48 64/149/48
f 63/150/49 62/151/49 65/152/49 66/153/49
f 65/154/50 64/155/50 66/156/50
o Mesh21_Model
v 15.019000 4.874887 -40.620899
v 11.014900 4.717387 -40.620899
v 1.284730 4.874887 -42.937401
vt -8.053900 42.532600
vt -4.105550 41.848301
vt 5.874360 42.532600
vn 0.038300 -0.973200 -0.226900
usemtl FrontColor
s 1
f 67/157/51 68/158/51 69/159/51
o Mesh14_Model
v -12.683600 4.874887 -42.139301
v -6.964840 4.717387 -42.139301
v -25.934099 4.874886 -38.280998
vt 0.397090 44.270901
vt -5.093660 42.664398
vt 14.197900 44.270901
vn -0.027400 -0.995200 -0.094100
usemtl FrontColor
s 1
f 70/160/52 71/161/52 72/162/52
o Mesh15_Model
v 45.914600 4.874883 -17.545601
v 50.432598 4.874881 -6.229879
v 31.066999 4.717383 -17.545601
v 45.873299 9.638983 -17.516998
v 50.391201 9.638981 -6.201279
v 31.025600 9.481483 -17.516998
vt -0.730472 49.199902
vt -12.914800 49.199902
vt 4.775080 35.409801
vt -12.914800 4.368920
vt -0.730472 4.368920
vt -0.741690 9.133270
vt -12.926000 9.133270
vt -45.915798 4.769510
vt -31.068100 4.612000
vt -31.026699 9.376190
vt -45.874401 9.533690
vt 17.973700 4.422430
vt 40.403000 4.579940
vt 40.381699 9.344250
vt 17.952400 9.186750
vt 12.926000 49.205299
vt 0.741690 49.205299
vt -4.763860 35.415199
vn 0.010600 -0.999900 -0.004200
vn 0.928700 0.010300 -0.370800
vn -0.000100 0.006000 -1.000000
vn -0.504400 -0.009600 0.863400
vn -0.010600 0.999900 0.004200
usemtl FrontColor
s 1
f 73/163/53 74/164/53 75/165/53
f 74/166/54 73/167/54 76/168/54 77/169/54
f 73/170/55 75/171/55 78/172/55 76/173/55
f 75/174/56 74/175/56 77/176/56 78/177/56
f 77/178/57 76/179/57 78/180/57
o Mesh20_Model
v -25.934099 4.874886 -38.280998
v -15.564800 4.717386 -38.280998
v -37.563801 4.874885 -31.625500
vt 3.494610 46.233898
vt -5.505190 41.081001
vt 16.894100 46.233898
vn -0.015200 -0.999500 -0.026500
usemtl FrontColor
s 1
f 79/181/58 80/182/58 81/183/58
o Mesh1_Model
v -31.883600 4.874873 40.878601
v -19.426100 4.717373 40.878601
v -19.319401 4.874872 46.151798
v -31.843300 8.770244 40.712299
v -19.385799 8.612743 40.712299
v -19.279100 8.770243 45.985500
vt -13.579300 50.164700
vt -2.092550 45.341202
vt 0.046594 50.164700
vt 19.448200 2.970140
vt 31.905701 3.127780
vt 31.865299 7.026700
vt 19.407801 6.869050
vt -13.579300 2.702380
vt 0.046594 2.702380
vt 0.019409 6.601410
vt -13.606500 6.601410
vt -45.758099 4.648030
vt -40.483898 4.490520
vt -40.318401 8.386130
vt -45.592701 8.543640
vt 2.119730 45.299500
vt 13.606500 50.123100
vt -0.019409 50.123100
vn -0.012600 -0.999500 0.030100
vn -0.000500 -0.042600 -0.999100
vn -0.386600 0.043300 0.921200
vn 0.999700 -0.011200 -0.019900
vn 0.012600 0.999500 -0.030100
usemtl FrontColor
s 1
f 82/184/59 83/185/59 84/186/59
f 83/187/60 82/188/60 85/189/60 86/190/60
f 82/191/61 84/192/61 87/193/61 85/194/61
f 84/195/62 83/196/62 86/197/62 87/198/62
f 86/199/63 85/200/63 87/201/63
o Mesh12_Model
v -55.667500 4.874880 -0.167901
v -52.955002 4.874882 -11.896699
v -34.862499 4.717380 -0.167901
v -55.618698 12.749700 -0.148360
v -52.906200 12.749701 -11.877198
v -34.813702 12.592200 -0.148360
vt 12.379900 54.310001
vt 0.341450 54.310001
vt 7.691910 34.039398
vt 0.341450 4.516750
vt 12.379900 4.516750
vt 12.387900 12.391700
vt 0.349491 12.391700
vt -55.667500 4.874450
vt -34.862499 4.716950
vt -34.813702 12.591800
vt -55.618698 12.749300
vt 29.344900 4.693120
vt 50.906399 4.850620
vt 50.854801 12.725400
vt 29.293301 12.567900
vt -0.349491 54.319302
vt -12.387900 54.319302
vt -7.699950 34.048698
vn -0.007600 -1.000000 -0.001800
vn -0.974300 0.006600 -0.225300
vn -0.000000 -0.002500 1.000000
vn 0.544000 -0.001300 -0.839100
vn 0.007600 1.000000 0.001800
usemtl FrontColor
s 1
f 88/202/64 89/203/64 90/204/64
f 89/205/65 88/206/65 91/207/65 92/208/65
f 88/209/66 90/210/66 93/211/66 91/212/66
f 90/213/67 89/214/67 92/215/67 93/216/67
f 92/217/68 91/218/68 93/219/68
o Mesh5_Model
v -54.733002 4.874878 11.760801
v -55.667500 4.874880 -0.167901
v -34.256001 4.717378 11.760801
v -54.691399 11.489698 11.755202
v -55.625900 11.489700 -0.173549
v -34.214298 11.332198 11.755202
vt 7.450030 55.520302
vt -4.515240 55.520302
vt 9.049360 35.105301
vt -4.515240 4.522810
vt 7.450030 4.522810
vt 7.447650 11.137800
vt -4.517620 11.137800
vt -54.733101 4.864840
vt -34.256100 4.707340
vt -34.214401 11.322200
vt -54.691399 11.479700
vt 24.202101 4.614680
vt 48.712299 4.772180
vt 48.678699 11.387100
vt 24.168501 11.229600
vt 4.517620 55.529400
vt -7.447650 55.529400
vt -9.046980 35.114300
vn -0.007700 -1.000000 0.000600
vn -0.996900 0.006300 0.078100
vn 0.000000 0.000800 1.000000
vn 0.486700 -0.003800 -0.873600
vn 0.007700 1.000000 -0.000600
usemtl FrontColor
s 1
f 94/220/69 95/221/69 96/222/69
f 95/223/70 94/224/70 97/225/70 98/226/70
f 94/227/71 96/228/71 99/229/71 97/230/71
f 96/231/72 95/232/72 98/233/72 99/234/72
f 98/235/73 97/236/73 99/237/73
