# Blender v2.76 (sub 0) OBJ File: ''
# www.blender.org
mtllib Door2T.mtl
o Mesh1_Model.001
v -21.000000 -0.000006 36.373100
v -29.698500 -0.000005 29.698500
v -36.373100 -0.000003 21.000000
v -40.568901 -0.000002 10.870400
v -42.000000 0.000000 -0.000000
v -40.568901 0.000002 -10.870400
v -36.373100 0.000003 -21.000000
v -29.698500 0.000005 -29.698500
v -21.000000 0.000006 -36.373100
v -10.870400 0.000007 -40.568901
v 0.000000 0.000007 -42.000000
v 10.870400 0.000007 -40.568901
v 21.000000 0.000006 -36.373100
v 29.698500 0.000005 -29.698500
v 36.373100 0.000003 -21.000000
v 40.568901 0.000002 -10.870400
v 42.000000 0.000000 0.000000
v 40.568901 -0.000002 10.870400
v 36.373100 -0.000003 21.000000
v 29.698500 -0.000005 29.698500
v 21.000000 -0.000006 36.373100
v 10.870400 -0.000007 40.568901
v -0.000000 -0.000007 42.000000
v -10.870400 -0.000007 40.568901
v -21.000000 5.312494 36.373100
v -29.698500 5.312495 29.698500
v -10.870400 5.312493 40.568901
v -0.000000 5.312493 42.000000
v 10.870400 5.312493 40.568901
v 21.000000 5.312494 36.373100
v 29.698500 5.312495 29.698500
v 36.373100 5.312497 21.000000
v 40.568901 5.312498 10.870401
v 42.000000 5.312500 0.000001
v 40.568901 5.312502 -10.870399
v 36.373100 5.312503 -21.000000
v 29.698500 5.312505 -29.698500
v 21.000000 5.312506 -36.373100
v 10.870400 5.312507 -40.568901
v 0.000000 5.312507 -42.000000
v -10.870400 5.312507 -40.568901
v -21.000000 5.312506 -36.373100
v -29.698500 5.312505 -29.698500
v -36.373100 5.312503 -21.000000
v -40.568901 5.312502 -10.870399
v -42.000000 5.312500 0.000001
v -40.568901 5.312498 10.870401
v -36.373100 5.312497 21.000000
vt -0.000000 42.000000
vt -42.000000 0.000000
vt 42.000000 0.000000
vt 5.482100 0.000000
vt 5.482100 5.312500
vt -5.482100 5.312500
vt -0.000000 -42.000000
vt 10.870400 -40.568901
vt 21.000000 -36.373100
vt 29.698500 -29.698500
vt 36.373100 -21.000000
vt 40.568901 -10.870400
vt 40.568901 10.870400
vt 36.373100 21.000000
vt 29.698500 29.698500
vt 21.000000 36.373100
vt 10.870400 40.568901
vt -10.870400 40.568901
vt -21.000000 36.373100
vt -29.698500 29.698500
vt -36.373100 21.000000
vt -40.568901 10.870400
vt -40.568901 -10.870400
vt -36.373100 -21.000000
vt -29.698500 -29.698500
vt -21.000000 -36.373100
vt -10.870400 -40.568901
vt -5.482100 0.000000
vn 0.000000 -1.000000 -0.000000
vn -0.500000 0.000000 0.866000
vn -0.707100 0.000000 0.707100
vn -0.258800 0.000000 0.965900
vn -0.000000 0.000000 1.000000
vn 0.258800 0.000000 0.965900
vn 0.500000 0.000000 0.866000
vn 0.707100 0.000000 0.707100
vn 0.866000 0.000000 0.500000
vn 0.965900 0.000000 0.258800
vn 1.000000 0.000000 -0.000000
vn 0.965900 0.000000 -0.258800
vn 0.866000 0.000000 -0.500000
vn 0.707100 0.000000 -0.707100
vn 0.500000 0.000000 -0.866000
vn 0.258800 0.000000 -0.965900
vn -0.000000 0.000000 -1.000000
vn -0.258800 0.000000 -0.965900
vn -0.500000 0.000000 -0.866000
vn -0.707100 0.000000 -0.707100
vn -0.866000 0.000000 -0.500000
vn -0.965900 0.000000 -0.258800
vn -1.000000 0.000000 -0.000000
vn -0.965900 0.000000 0.258800
vn -0.866000 0.000000 0.500000
vn -0.000000 1.000000 0.000000
usemtl FrontColor.001
s 1
f 11/1/1 17/2/1 5/3/1
f 1/4/2 25/5/2 26/6/3
f 24/4/4 27/5/4 25/6/2
f 23/4/5 28/5/5 27/6/4
f 22/4/6 29/5/6 28/6/5
f 21/4/7 30/5/7 29/6/6
f 20/4/8 31/5/8 30/6/7
f 19/4/9 32/5/9 31/6/8
f 18/4/10 33/5/10 32/6/9
f 17/4/11 34/5/11 33/6/10
f 16/4/12 35/5/12 34/6/11
f 15/4/13 36/5/13 35/6/12
f 14/4/14 37/5/14 36/6/13
f 13/4/15 38/5/15 37/6/14
f 12/4/16 39/5/16 38/6/15
f 11/4/17 40/5/17 39/6/16
f 10/4/18 41/5/18 40/6/17
f 9/4/19 42/5/19 41/6/18
f 8/4/20 43/5/20 42/6/19
f 7/4/21 44/5/21 43/6/20
f 6/4/22 45/5/22 44/6/21
f 5/4/23 46/5/23 45/6/22
f 4/4/24 47/5/24 46/6/23
f 3/4/25 48/5/25 47/6/24
f 2/4/3 26/5/3 48/6/25
f 34/3/26 40/1/26 28/7/26
f 24/8/1 1/9/1 2/10/1
f 2/10/1 3/11/1 4/12/1
f 4/12/1 5/3/1 2/10/1
f 6/13/1 7/14/1 8/15/1
f 8/15/1 9/16/1 10/17/1
f 10/17/1 11/1/1 8/15/1
f 12/18/1 13/19/1 14/20/1
f 14/20/1 15/21/1 16/22/1
f 16/22/1 17/2/1 14/20/1
f 18/23/1 19/24/1 20/25/1
f 20/25/1 21/26/1 22/27/1
f 22/27/1 23/7/1 20/25/1
f 24/8/1 2/10/1 23/7/1
f 5/3/1 6/13/1 8/15/1
f 8/15/1 11/1/1 5/3/1
f 12/18/1 14/20/1 11/1/1
f 17/2/1 18/23/1 20/25/1
f 20/25/1 23/7/1 17/2/1
f 2/10/1 5/3/1 23/7/1
f 11/1/1 14/20/1 17/2/1
f 17/2/1 23/7/1 5/3/1
f 2/28/3 1/4/2 26/6/3
f 1/28/2 24/4/4 25/6/2
f 24/28/4 23/4/5 27/6/4
f 23/28/5 22/4/6 28/6/5
f 22/28/6 21/4/7 29/6/6
f 21/28/7 20/4/8 30/6/7
f 20/28/8 19/4/9 31/6/8
f 19/28/9 18/4/10 32/6/9
f 18/28/10 17/4/11 33/6/10
f 17/28/11 16/4/12 34/6/11
f 16/28/12 15/4/13 35/6/12
f 15/28/13 14/4/14 36/6/13
f 14/28/14 13/4/15 37/6/14
f 13/28/15 12/4/16 38/6/15
f 12/28/16 11/4/17 39/6/16
f 11/28/17 10/4/18 40/6/17
f 10/28/18 9/4/19 41/6/18
f 9/28/19 8/4/20 42/6/19
f 8/28/20 7/4/21 43/6/20
f 7/28/21 6/4/22 44/6/21
f 6/28/22 5/4/23 45/6/22
f 5/28/23 4/4/24 46/6/23
f 4/28/24 3/4/25 47/6/24
f 3/28/25 2/4/3 48/6/25
f 48/24/26 26/25/26 47/23/26
f 25/26/26 27/27/26 26/25/26
f 28/7/26 29/8/26 31/10/26
f 30/9/26 31/10/26 29/8/26
f 32/11/26 33/12/26 31/10/26
f 34/3/26 35/13/26 37/15/26
f 36/14/26 37/15/26 35/13/26
f 38/16/26 39/17/26 37/15/26
f 40/1/26 41/18/26 43/20/26
f 42/19/26 43/20/26 41/18/26
f 44/21/26 45/22/26 43/20/26
f 46/2/26 47/23/26 26/25/26
f 26/25/26 27/27/26 28/7/26
f 28/7/26 31/10/26 34/3/26
f 33/12/26 34/3/26 31/10/26
f 37/15/26 39/17/26 40/1/26
f 40/1/26 43/20/26 46/2/26
f 45/22/26 46/2/26 43/20/26
f 26/25/26 28/7/26 46/2/26
f 34/3/26 37/15/26 40/1/26
f 40/1/26 46/2/26 28/7/26
