# Blender v2.76 (sub 0) OBJ File: ''
# www.blender.org
mtllib Roof5T.mtl
o Mesh1_Model.008
v 81.591301 -0.000012 73.670502
v -73.971199 -0.000012 73.670502
v -73.971199 0.000013 -81.891998
v 81.591301 0.000013 -81.891998
v -0.283728 107.000000 -2.516932
vt 73.971199 -73.670502
vt 73.971199 81.891998
vt -81.591301 81.891998
vt -73.971199 -42.730598
vt 81.591301 -42.730598
vt -0.283728 88.622200
vt -73.670502 -49.582298
vt 81.891998 -49.582298
vt 2.516950 85.149002
vt -81.591301 -48.790298
vt 73.971199 -48.790298
vt 0.283728 84.436600
vt -81.891998 -41.955101
vt 73.670502 -41.955101
vt -2.516950 87.963501
vt -81.591301 -73.670502
vn 0.000000 -1.000000 -0.000000
vn 0.000000 0.580000 0.814600
vn 0.794200 0.607700 0.000000
vn 0.000000 0.595800 -0.803100
vn -0.823600 0.567200 0.000000
usemtl FrontColor.008
s 1
f 2/1/1 3/2/1 4/3/1
f 2/4/2 1/5/2 5/6/2
f 1/7/3 4/8/3 5/9/3
f 4/10/4 3/11/4 5/12/4
f 3/13/5 2/14/5 5/15/5
f 1/16/1 2/1/1 4/3/1
