# Blender v2.76 (sub 0) OBJ File: ''
# www.blender.org
mtllib Roof2T.mtl
o Mesh1_Model.005
v -60.114201 -0.000010 60.446999
v -60.114201 0.000010 -59.490501
v 59.823299 0.000010 -59.490501
v 59.823299 -0.000010 60.446999
v -60.114201 11.124990 60.446999
v -60.114201 11.125010 -59.490501
v 59.823299 11.124990 60.446999
v 59.823299 11.125010 -59.490501
v -51.514400 11.125009 -50.890598
v -51.514400 11.124991 51.847198
v 51.223400 11.124991 51.847198
v 51.223400 11.125009 -50.890598
v -51.514400 21.375008 -50.890594
v 51.223400 21.375008 -50.890594
v -51.514400 21.374992 51.847202
v 51.223400 21.374992 51.847202
v 40.570000 21.375006 -40.237198
v -40.860901 21.375006 -40.237198
v -40.860901 21.374992 41.193703
v 40.570000 21.374992 41.193703
v 40.570000 31.687506 -40.237198
v 40.570000 31.687492 41.193703
v -40.860901 31.687506 -40.237198
v -40.860901 31.687492 41.193703
vt 60.114201 59.490501
vt -59.823299 59.490501
vt -59.823299 -60.446999
vt 60.446999 0.000000
vt 60.446999 11.125000
vt -59.490501 11.125000
vt 59.823299 0.000000
vt 59.823299 11.125000
vt -60.114201 11.125000
vt 59.490501 0.000000
vt 59.490501 11.125000
vt -60.446999 11.125000
vt 60.114201 0.000000
vt 60.114201 11.125000
vt -59.823299 11.125000
vt -60.114201 59.490501
vt -51.514400 50.890598
vt 59.823299 59.490501
vt -51.514400 -51.847198
vt -60.114201 -60.446999
vt 59.823299 -60.446999
vt 51.223400 -51.847198
vt 51.223400 50.890598
vt 51.514400 11.125000
vt 51.514400 21.375000
vt -51.223400 21.375000
vt 51.847198 11.125000
vt 51.847198 21.375000
vt -50.890598 21.375000
vt 51.223400 11.125000
vt 51.223400 21.375000
vt -51.514400 21.375000
vt 50.890598 11.125000
vt 50.890598 21.375000
vt -51.847198 21.375000
vt 40.570000 40.237202
vt -40.860901 40.237202
vt -40.860901 -41.193699
vt 40.570000 -41.193699
vt 40.237202 21.375000
vt 40.237202 31.687500
vt -41.193699 31.687500
vt 40.860901 21.375000
vt 40.860901 31.687500
vt -40.570000 31.687500
vt 41.193699 21.375000
vt 41.193699 31.687500
vt -40.237202 31.687500
vt 40.570000 21.375000
vt 40.570000 31.687500
vt -40.860901 31.687500
vt 60.114201 -60.446999
vt -59.490501 0.000000
vt -60.114201 0.000000
vt -60.446999 0.000000
vt -59.823299 0.000000
vt -51.223400 11.125000
vt -50.890598 11.125000
vt -51.514400 11.125000
vt -51.847198 11.125000
vt -41.193699 21.375000
vt -40.570000 21.375000
vt -40.237202 21.375000
vt -40.860901 21.375000
vn 0.000000 -1.000000 -0.000000
vn -1.000000 0.000000 0.000000
vn 0.000000 0.000000 1.000000
vn 1.000000 0.000000 0.000000
vn 0.000000 0.000000 -1.000000
vn -0.000000 1.000000 0.000000
usemtl FrontColor.005
s 1
f 2/1/1 3/2/1 4/3/1
f 1/4/2 5/5/2 6/6/2
f 4/7/3 7/8/3 5/9/3
f 3/10/4 8/11/4 7/12/4
f 2/13/5 6/14/5 8/15/5
f 6/16/6 9/17/6 8/18/6
f 9/17/6 6/16/6 10/19/6
f 5/20/6 10/19/6 6/16/6
f 10/19/6 5/20/6 7/21/6
f 10/19/6 7/21/6 11/22/6
f 11/22/6 7/21/6 12/23/6
f 8/18/6 12/23/6 7/21/6
f 8/18/6 9/17/6 12/23/6
f 9/24/5 13/25/5 14/26/5
f 10/27/2 15/28/2 13/29/2
f 11/30/3 16/31/3 15/32/3
f 12/33/4 14/34/4 16/35/4
f 14/23/6 17/36/6 16/22/6
f 14/23/6 18/37/6 17/36/6
f 13/17/6 18/37/6 14/23/6
f 18/37/6 13/17/6 19/38/6
f 15/19/6 19/38/6 13/17/6
f 19/38/6 15/19/6 16/22/6
f 19/38/6 16/22/6 20/39/6
f 20/39/6 16/22/6 17/36/6
f 17/40/4 21/41/4 22/42/4
f 18/43/5 23/44/5 21/45/5
f 19/46/2 24/47/2 23/48/2
f 20/49/3 22/50/3 24/51/3
f 24/38/6 22/39/6 21/36/6
f 1/52/1 2/1/1 4/3/1
f 2/53/2 1/4/2 6/6/2
f 1/54/3 4/7/3 5/9/3
f 4/55/4 3/10/4 7/12/4
f 3/56/5 2/13/5 8/15/5
f 12/57/5 9/24/5 14/26/5
f 9/58/2 10/27/2 13/29/2
f 10/59/3 11/30/3 15/32/3
f 11/60/4 12/33/4 16/35/4
f 20/61/4 17/40/4 22/42/4
f 17/62/5 18/43/5 21/45/5
f 18/63/2 19/46/2 23/48/2
f 19/64/3 20/49/3 24/51/3
f 23/37/6 24/38/6 21/36/6
